<svg xmlns="http://www.w3.org/2000/svg" viewBox="0 0 32 32" fill="none" role="img" aria-label="Whisper Chat">
  <rect width="32" height="32" rx="8" fill="#4c2c6b"/>
  <path d="M16 6.5c-4.2 0-7.5 3.1-7.5 7v1.2c0 .9.2 1.7.5 2.5L7 21.5c-.4.8.4 1.6 1.2 1.2l3.8-2.1c1 .5 2.1.8 3.3.8 4.2 0 7.5-3.1 7.5-7v-1.2c0-3.9-3.3-7-7.5-7z" fill="#f5f2f8"/>
  <rect x="10" y="12.5" width="12" height="3.2" rx="1.6" fill="#4c2c6b"/>
  <path d="M21.8 11.2c.9.5 1.4 1.1 1.6 1.9" stroke="#fe904c" stroke-width="1.35" stroke-linecap="round"/>
  <path d="M22.8 13.6c1.1.3 1.9.8 2.4 1.5" stroke="#fe904c" stroke-width="1.35" stroke-linecap="round"/>
  <path d="M22.2 15.8c1.2.1 2.1.5 2.8 1.1" stroke="#fe904c" stroke-width="1.35" stroke-linecap="round"/>
  <circle cx="13.2" cy="12.8" r="0.85" fill="#fe904c" opacity="0.55"/>
  <circle cx="18.8" cy="12.8" r="0.85" fill="#fe904c" opacity="0.55"/>
</svg>
